<svg xmlns="http://www.w3.org/2000/svg" width="769" height="214" viewBox="0 0 769 214" fill="none" role="img" aria-labelledby="title desc"><title id="title">2,459 contributions in the last year</title><desc id="desc">Contribution calendar combining GitHub and GitLab: 2,459 contributions in the last year.</desc><style>svg{--title:#4493f8;--icon:#4493f8;--text:#9198a1;--bg:#0d1117;--border:#3d444d}.bg{fill:var(--bg);stroke:var(--border)}.title{font:600 18px 'Segoe UI', Ubuntu, 'Helvetica Neue', Sans-Serif;fill:var(--title)}.text{font:400 14px 'Segoe UI', Ubuntu, 'Helvetica Neue', Sans-Serif;fill:var(--text)}.small{font:400 12px 'Segoe UI', Ubuntu, 'Helvetica Neue', Sans-Serif;fill:var(--text)}.bold{font-weight:700}.icon{fill:var(--icon)}</style><rect class="bg" x="0.5" y="0.5" rx="4.5" width="768" height="213"/><text class="title" x="25" y="35">2,459 contributions in the last year</text><g transform="translate(0 68)"><text class="small" x="68" y="8">Oct</text><text class="small" x="120" y="8">Nov</text><text class="small" x="185" y="8">Dec</text><text class="small" x="237" y="8">Jan</text><text class="small" x="289" y="8">Feb</text><text class="small" x="341" y="8">Mar</text><text class="small" x="406" y="8">Apr</text><text class="small" x="458" y="8">May</text><text class="small" x="523" y="8">Jun</text><text class="small" x="575" y="8">Jul</text><text class="small" x="627" y="8">Aug</text><text class="small" x="692" y="8">Sep</text><text class="small" x="25" y="37">Mon</text><text class="small" x="25" y="63">Wed</text><text class="small" x="25" y="89">Fri</text><path d="M55 93h10v10h-10zM68 15h10v10h-10zM68 28h10v10h-10zM68 41h10v10h-10zM68 54h10v10h-10zM68 67h10v10h-10zM68 80h10v10h-10zM68 93h10v10h-10zM81 15h10v10h-10zM81 28h10v10h-10zM81 41h10v10h-10zM81 54h10v10h-10zM81 67h10v10h-10zM81 80h10v10h-10zM81 93h10v10h-10zM94 15h10v10h-10zM94 28h10v10h-10zM94 41h10v10h-10zM94 54h10v10h-10zM94 67h10v10h-10zM94 80h10v10h-10zM94 93h10v10h-10zM107 15h10v10h-10zM107 28h10v10h-10zM107 41h10v10h-10zM107 54h10v10h-10zM107 67h10v10h-10zM107 80h10v10h-10zM107 93h10v10h-10zM120 15h10v10h-10zM120 28h10v10h-10zM120 41h10v10h-10zM120 54h10v10h-10zM120 67h10v10h-10zM120 80h10v10h-10zM120 93h10v10h-10zM133 15h10v10h-10zM133 28h10v10h-10zM133 41h10v10h-10zM133 54h10v10h-10zM133 67h10v10h-10zM133 80h10v10h-10zM146 15h10v10h-10zM146 28h10v10h-10zM146 41h10v10h-10zM146 80h10v10h-10zM146 93h10v10h-10zM159 15h10v10h-10zM159 28h10v10h-10zM159 54h10v10h-10zM159 67h10v10h-10zM159 80h10v10h-10zM172 15h10v10h-10zM172 28h10v10h-10zM172 41h10v10h-10zM172 54h10v10h-10zM172 67h10v10h-10zM172 93h10v10h-10zM185 15h10v10h-10zM185 28h10v10h-10zM185 41h10v10h-10zM185 80h10v10h-10zM185 93h10v10h-10zM198 15h10v10h-10zM198 28h10v10h-10zM198 80h10v10h-10zM198 93h10v10h-10zM211 28h10v10h-10zM211 41h10v10h-10zM211 93h10v10h-10zM224 15h10v10h-10zM224 54h10v10h-10zM237 15h10v10h-10zM237 41h10v10h-10zM237 80h10v10h-10zM250 41h10v10h-10zM250 80h10v10h-10zM263 28h10v10h-10zM263 41h10v10h-10zM263 54h10v10h-10zM263 80h10v10h-10zM263 93h10v10h-10zM276 28h10v10h-10zM276 41h10v10h-10zM276 54h10v10h-10zM276 67h10v10h-10zM276 93h10v10h-10zM289 41h10v10h-10zM289 54h10v10h-10zM302 15h10v10h-10zM302 28h10v10h-10zM302 54h10v10h-10zM302 80h10v10h-10zM315 15h10v10h-10zM315 28h10v10h-10zM315 41h10v10h-10zM315 54h10v10h-10zM315 67h10v10h-10zM315 80h10v10h-10zM328 28h10v10h-10zM328 54h10v10h-10zM328 67h10v10h-10zM328 80h10v10h-10zM328 93h10v10h-10zM341 15h10v10h-10zM341 28h10v10h-10zM341 41h10v10h-10zM341 54h10v10h-10zM341 67h10v10h-10zM341 80h10v10h-10zM341 93h10v10h-10zM354 15h10v10h-10zM354 28h10v10h-10zM354 67h10v10h-10zM354 80h10v10h-10zM354 93h10v10h-10zM367 54h10v10h-10zM367 67h10v10h-10zM367 80h10v10h-10zM380 15h10v10h-10zM380 28h10v10h-10zM380 41h10v10h-10zM380 54h10v10h-10zM380 67h10v10h-10zM380 80h10v10h-10zM393 15h10v10h-10zM393 41h10v10h-10zM406 15h10v10h-10zM419 28h10v10h-10zM419 80h10v10h-10zM432 28h10v10h-10zM432 41h10v10h-10zM432 54h10v10h-10zM445 54h10v10h-10zM458 15h10v10h-10zM458 28h10v10h-10zM458 41h10v10h-10zM484 28h10v10h-10zM484 41h10v10h-10zM484 54h10v10h-10zM484 67h10v10h-10zM484 93h10v10h-10zM510 28h10v10h-10zM536 54h10v10h-10zM588 54h10v10h-10zM588 67h10v10h-10zM601 15h10v10h-10zM601 41h10v10h-10zM601 54h10v10h-10zM614 80h10v10h-10zM627 54h10v10h-10zM627 80h10v10h-10zM627 93h10v10h-10zM640 15h10v10h-10zM640 67h10v10h-10zM640 93h10v10h-10zM653 15h10v10h-10zM653 28h10v10h-10zM653 80h10v10h-10zM666 15h10v10h-10zM666 28h10v10h-10zM692 54h10v10h-10zM692 67h10v10h-10zM692 80h10v10h-10zM705 80h10v10h-10zM705 93h10v10h-10z" fill="var(--text)" fill-opacity="0.12"/><rect x="133" y="93" width="10" height="10" rx="2" fill="#fc6d26" fill-opacity="0.6"/><rect x="146" y="54" width="10" height="10" rx="2" fill="#fc6d26" fill-opacity="0.4"/><rect x="146" y="67" width="10" height="10" rx="2" fill="#fc6d26" fill-opacity="0.4"/><rect x="159" y="41" width="10" height="10" rx="2" fill="#40c463" fill-opacity="0.6"/><rect x="159" y="93" width="10" height="10" rx="2" fill="#40c463" fill-opacity="0.4"/><rect x="172" y="80" width="10" height="10" rx="2" fill="#40c463" fill-opacity="0.4"/><rect x="185" y="54" width="10" height="10" rx="2" fill="#fc6d26" fill-opacity="0.4"/><rect x="185" y="67" width="10" height="10" rx="2" fill="#fc6d26" fill-opacity="0.4"/><rect x="198" y="41" width="10" height="10" rx="2" fill="#fc6d26" fill-opacity="0.8"/><rect x="198" y="54" width="10" height="10" rx="2" fill="#fc6d26" fill-opacity="0.4"/><rect x="198" y="67" width="10" height="10" rx="2" fill="#fc6d26" fill-opacity="0.4"/><rect x="211" y="15" width="10" height="10" rx="2" fill="#fc6d26" fill-opacity="0.4"/><rect x="211" y="54" width="10" height="10" rx="2" fill="#fc6d26" fill-opacity="0.6"/><rect x="211" y="67" width="10" height="10" rx="2" fill="#fc6d26" fill-opacity="0.4"/><rect x="211" y="80" width="10" height="10" rx="2" fill="#fc6d26" fill-opacity="0.6"/><rect x="224" y="28" width="10" height="10" rx="2" fill="#fc6d26" fill-opacity="0.4"/><rect x="224" y="41" width="10" height="10" rx="2" fill="#fc6d26" fill-opacity="0.4"/><rect x="224" y="67" width="10" height="10" rx="2" fill="#fc6d26" fill-opacity="0.4"/><rect x="224" y="80" width="10" height="10" rx="2" fill="#fc6d26" fill-opacity="0.4"/><rect x="224" y="93" width="10" height="10" rx="2" fill="#fc6d26" fill-opacity="0.6"/><rect x="237" y="28" width="10" height="10" rx="2" fill="#fc6d26" fill-opacity="0.4"/><rect x="237" y="54" width="10" height="10" rx="2" fill="#fc6d26" fill-opacity="0.4"/><rect x="237" y="67" width="10" height="10" rx="2" fill="#fc6d26" fill-opacity="0.4"/><rect x="237" y="93" width="10" height="10" rx="2" fill="#fc6d26" fill-opacity="0.4"/><rect x="250" y="15" width="10" height="10" rx="2" fill="#fc6d26" fill-opacity="0.6"/><rect x="250" y="28" width="10" height="10" rx="2" fill="#fc6d26" fill-opacity="0.6"/><rect x="250" y="54" width="10" height="10" rx="2" fill="#fc6d26" fill-opacity="0.4"/><rect x="250" y="67" width="10" height="10" rx="2" fill="#fc6d26" fill-opacity="0.4"/><rect x="250" y="93" width="10" height="10" rx="2" fill="#fc6d26" fill-opacity="0.6"/><rect x="263" y="15" width="10" height="10" rx="2" fill="#fc6d26" fill-opacity="0.4"/><rect x="263" y="67" width="10" height="10" rx="2" fill="#fc6d26" fill-opacity="0.4"/><rect x="276" y="15" width="10" height="10" rx="2" fill="#fc6d26" fill-opacity="0.4"/><rect x="276" y="80" width="10" height="10" rx="2" fill="#fc6d26" fill-opacity="0.4"/><rect x="289" y="15" width="10" height="10" rx="2" fill="#fc6d26" fill-opacity="0.4"/><rect x="289" y="28" width="10" height="10" rx="2" fill="#fc6d26" fill-opacity="0.4"/><rect x="289" y="67" width="10" height="10" rx="2" fill="#fc6d26" fill-opacity="0.6"/><rect x="289" y="80" width="10" height="10" rx="2" fill="#fc6d26" fill-opacity="0.6"/><rect x="289" y="93" width="10" height="10" rx="2" fill="#fc6d26" fill-opacity="0.6"/><rect x="302" y="41" width="10" height="10" rx="2" fill="#fc6d26" fill-opacity="0.4"/><rect x="302" y="67" width="10" height="10" rx="2" fill="#fc6d26" fill-opacity="0.4"/><rect x="302" y="93" width="10" height="10" rx="2" fill="#40c463" fill-opacity="0.6"/><g fill-opacity="0.6"><rect x="315" y="93.0" width="10" height="6.7" fill="#40c463"/><rect x="315" y="99.7" width="10" height="3.3" fill="#fc6d26"/></g><rect x="328" y="15" width="10" height="10" rx="2" fill="#fc6d26" fill-opacity="0.8"/><rect x="328" y="41" width="10" height="10" rx="2" fill="#fc6d26" fill-opacity="0.6"/><rect x="354" y="41" width="10" height="10" rx="2" fill="#fc6d26" fill-opacity="0.4"/><rect x="354" y="54" width="10" height="10" rx="2" fill="#fc6d26" fill-opacity="0.4"/><rect x="367" y="15" width="10" height="10" rx="2" fill="#fc6d26" fill-opacity="0.4"/><rect x="367" y="28" width="10" height="10" rx="2" fill="#40c463" fill-opacity="0.4"/><rect x="367" y="41" width="10" height="10" rx="2" fill="#fc6d26" fill-opacity="0.4"/><g fill-opacity="0.4"><rect x="367" y="93.0" width="10" height="5.0" fill="#40c463"/><rect x="367" y="98.0" width="10" height="5.0" fill="#fc6d26"/></g><rect x="380" y="93" width="10" height="10" rx="2" fill="#fc6d26" fill-opacity="0.4"/><rect x="393" y="28" width="10" height="10" rx="2" fill="#fc6d26" fill-opacity="0.4"/><rect x="393" y="54" width="10" height="10" rx="2" fill="#40c463" fill-opacity="0.8"/><rect x="393" y="67" width="10" height="10" rx="2" fill="#40c463" fill-opacity="0.6"/><rect x="393" y="80" width="10" height="10" rx="2" fill="#40c463" fill-opacity="0.8"/><rect x="393" y="93" width="10" height="10" rx="2" fill="#40c463" fill-opacity="0.8"/><rect x="406" y="28" width="10" height="10" rx="2" fill="#40c463" fill-opacity="0.8"/><rect x="406" y="41" width="10" height="10" rx="2" fill="#40c463" fill-opacity="1"/><rect x="406" y="54" width="10" height="10" rx="2" fill="#40c463" fill-opacity="0.8"/><rect x="406" y="67" width="10" height="10" rx="2" fill="#40c463" fill-opacity="0.6"/><rect x="406" y="80" width="10" height="10" rx="2" fill="#40c463" fill-opacity="0.8"/><g fill-opacity="0.8"><rect x="406" y="93.0" width="10" height="7.8" fill="#40c463"/><rect x="406" y="100.8" width="10" height="2.2" fill="#fc6d26"/></g><g fill-opacity="0.8"><rect x="419" y="15.0" width="10" height="8.6" fill="#40c463"/><rect x="419" y="23.6" width="10" height="1.4" fill="#fc6d26"/></g><g fill-opacity="0.6"><rect x="419" y="41.0" width="10" height="3.3" fill="#40c463"/><rect x="419" y="44.3" width="10" height="6.7" fill="#fc6d26"/></g><rect x="419" y="54" width="10" height="10" rx="2" fill="#40c463" fill-opacity="0.4"/><rect x="419" y="67" width="10" height="10" rx="2" fill="#40c463" fill-opacity="0.6"/><rect x="419" y="93" width="10" height="10" rx="2" fill="#40c463" fill-opacity="0.6"/><rect x="432" y="15" width="10" height="10" rx="2" fill="#40c463" fill-opacity="0.6"/><rect x="432" y="67" width="10" height="10" rx="2" fill="#40c463" fill-opacity="0.6"/><rect x="432" y="80" width="10" height="10" rx="2" fill="#40c463" fill-opacity="0.4"/><rect x="432" y="93" width="10" height="10" rx="2" fill="#40c463" fill-opacity="1"/><rect x="445" y="15" width="10" height="10" rx="2" fill="#40c463" fill-opacity="0.8"/><rect x="445" y="28" width="10" height="10" rx="2" fill="#40c463" fill-opacity="0.4"/><rect x="445" y="41" width="10" height="10" rx="2" fill="#40c463" fill-opacity="0.6"/><rect x="445" y="67" width="10" height="10" rx="2" fill="#40c463" fill-opacity="0.8"/><rect x="445" y="80" width="10" height="10" rx="2" fill="#40c463" fill-opacity="1"/><g fill-opacity="0.6"><rect x="445" y="93.0" width="10" height="7.5" fill="#40c463"/><rect x="445" y="100.5" width="10" height="2.5" fill="#fc6d26"/></g><g fill-opacity="0.6"><rect x="458" y="54.0" width="10" height="6.0" fill="#40c463"/><rect x="458" y="60.0" width="10" height="4.0" fill="#fc6d26"/></g><rect x="458" y="67" width="10" height="10" rx="2" fill="#fc6d26" fill-opacity="0.6"/><rect x="458" y="80" width="10" height="10" rx="2" fill="#40c463" fill-opacity="0.8"/><rect x="458" y="93" width="10" height="10" rx="2" fill="#40c463" fill-opacity="1"/><rect x="471" y="15" width="10" height="10" rx="2" fill="#40c463" fill-opacity="0.6"/><rect x="471" y="28" width="10" height="10" rx="2" fill="#40c463" fill-opacity="1"/><rect x="471" y="41" width="10" height="10" rx="2" fill="#40c463" fill-opacity="0.8"/><rect x="471" y="54" width="10" height="10" rx="2" fill="#40c463" fill-opacity="0.4"/><rect x="471" y="67" width="10" height="10" rx="2" fill="#40c463" fill-opacity="0.8"/><rect x="471" y="80" width="10" height="10" rx="2" fill="#40c463" fill-opacity="1"/><rect x="471" y="93" width="10" height="10" rx="2" fill="#40c463" fill-opacity="0.6"/><rect x="484" y="15" width="10" height="10" rx="2" fill="#fc6d26" fill-opacity="0.4"/><rect x="484" y="80" width="10" height="10" rx="2" fill="#40c463" fill-opacity="0.4"/><rect x="497" y="15" width="10" height="10" rx="2" fill="#fc6d26" fill-opacity="0.6"/><g fill-opacity="1"><rect x="497" y="28.0" width="10" height="9.1" fill="#40c463"/><rect x="497" y="37.1" width="10" height="0.9" fill="#fc6d26"/></g><rect x="497" y="41" width="10" height="10" rx="2" fill="#40c463" fill-opacity="1"/><rect x="497" y="54" width="10" height="10" rx="2" fill="#40c463" fill-opacity="1"/><rect x="497" y="67" width="10" height="10" rx="2" fill="#40c463" fill-opacity="1"/><rect x="497" y="80" width="10" height="10" rx="2" fill="#40c463" fill-opacity="1"/><rect x="497" y="93" width="10" height="10" rx="2" fill="#40c463" fill-opacity="0.8"/><rect x="510" y="15" width="10" height="10" rx="2" fill="#40c463" fill-opacity="1"/><rect x="510" y="41" width="10" height="10" rx="2" fill="#40c463" fill-opacity="0.8"/><rect x="510" y="54" width="10" height="10" rx="2" fill="#40c463" fill-opacity="0.4"/><rect x="510" y="67" width="10" height="10" rx="2" fill="#40c463" fill-opacity="1"/><rect x="510" y="80" width="10" height="10" rx="2" fill="#40c463" fill-opacity="0.8"/><rect x="510" y="93" width="10" height="10" rx="2" fill="#40c463" fill-opacity="1"/><rect x="523" y="15" width="10" height="10" rx="2" fill="#40c463" fill-opacity="1"/><rect x="523" y="28" width="10" height="10" rx="2" fill="#40c463" fill-opacity="1"/><rect x="523" y="41" width="10" height="10" rx="2" fill="#40c463" fill-opacity="1"/><rect x="523" y="54" width="10" height="10" rx="2" fill="#40c463" fill-opacity="0.8"/><rect x="523" y="67" width="10" height="10" rx="2" fill="#40c463" fill-opacity="1"/><rect x="523" y="80" width="10" height="10" rx="2" fill="#40c463" fill-opacity="0.8"/><rect x="523" y="93" width="10" height="10" rx="2" fill="#40c463" fill-opacity="0.8"/><rect x="536" y="15" width="10" height="10" rx="2" fill="#40c463" fill-opacity="1"/><rect x="536" y="28" width="10" height="10" rx="2" fill="#40c463" fill-opacity="1"/><g fill-opacity="1"><rect x="536" y="41.0" width="10" height="4.4" fill="#40c463"/><rect x="536" y="45.4" width="10" height="5.6" fill="#fc6d26"/></g><rect x="536" y="67" width="10" height="10" rx="2" fill="#fc6d26" fill-opacity="1"/><rect x="536" y="80" width="10" height="10" rx="2" fill="#fc6d26" fill-opacity="0.6"/><rect x="536" y="93" width="10" height="10" rx="2" fill="#40c463" fill-opacity="0.8"/><rect x="549" y="15" width="10" height="10" rx="2" fill="#40c463" fill-opacity="0.6"/><rect x="549" y="28" width="10" height="10" rx="2" fill="#40c463" fill-opacity="1"/><rect x="549" y="41" width="10" height="10" rx="2" fill="#40c463" fill-opacity="1"/><rect x="549" y="54" width="10" height="10" rx="2" fill="#40c463" fill-opacity="1"/><rect x="549" y="67" width="10" height="10" rx="2" fill="#40c463" fill-opacity="1"/><rect x="549" y="80" width="10" height="10" rx="2" fill="#40c463" fill-opacity="1"/><rect x="549" y="93" width="10" height="10" rx="2" fill="#40c463" fill-opacity="0.8"/><rect x="562" y="15" width="10" height="10" rx="2" fill="#40c463" fill-opacity="0.8"/><g fill-opacity="0.6"><rect x="562" y="28.0" width="10" height="8.0" fill="#40c463"/><rect x="562" y="36.0" width="10" height="2.0" fill="#fc6d26"/></g><rect x="562" y="41" width="10" height="10" rx="2" fill="#40c463" fill-opacity="0.8"/><rect x="562" y="54" width="10" height="10" rx="2" fill="#40c463" fill-opacity="0.8"/><rect x="562" y="67" width="10" height="10" rx="2" fill="#40c463" fill-opacity="0.6"/><g fill-opacity="0.6"><rect x="562" y="80.0" width="10" height="7.5" fill="#40c463"/><rect x="562" y="87.5" width="10" height="2.5" fill="#fc6d26"/></g><rect x="562" y="93" width="10" height="10" rx="2" fill="#fc6d26" fill-opacity="0.4"/><g fill-opacity="0.8"><rect x="575" y="15.0" width="10" height="6.0" fill="#40c463"/><rect x="575" y="21.0" width="10" height="4.0" fill="#fc6d26"/></g><rect x="575" y="28" width="10" height="10" rx="2" fill="#fc6d26" fill-opacity="0.6"/><rect x="575" y="41" width="10" height="10" rx="2" fill="#fc6d26" fill-opacity="0.8"/><rect x="575" y="54" width="10" height="10" rx="2" fill="#40c463" fill-opacity="1"/><rect x="575" y="67" width="10" height="10" rx="2" fill="#40c463" fill-opacity="1"/><rect x="575" y="80" width="10" height="10" rx="2" fill="#40c463" fill-opacity="0.8"/><rect x="575" y="93" width="10" height="10" rx="2" fill="#40c463" fill-opacity="1"/><g fill-opacity="0.8"><rect x="588" y="15.0" width="10" height="8.9" fill="#40c463"/><rect x="588" y="23.9" width="10" height="1.1" fill="#fc6d26"/></g><rect x="588" y="28" width="10" height="10" rx="2" fill="#fc6d26" fill-opacity="1"/><rect x="588" y="41" width="10" height="10" rx="2" fill="#fc6d26" fill-opacity="0.6"/><rect x="588" y="80" width="10" height="10" rx="2" fill="#fc6d26" fill-opacity="0.4"/><rect x="588" y="93" width="10" height="10" rx="2" fill="#fc6d26" fill-opacity="0.6"/><rect x="601" y="28" width="10" height="10" rx="2" fill="#fc6d26" fill-opacity="0.8"/><g fill-opacity="0.8"><rect x="601" y="67.0" width="10" height="3.8" fill="#40c463"/><rect x="601" y="70.8" width="10" height="6.2" fill="#fc6d26"/></g><g fill-opacity="0.8"><rect x="601" y="80.0" width="10" height="5.6" fill="#40c463"/><rect x="601" y="85.6" width="10" height="4.4" fill="#fc6d26"/></g><rect x="601" y="93" width="10" height="10" rx="2" fill="#fc6d26" fill-opacity="0.6"/><rect x="614" y="15" width="10" height="10" rx="2" fill="#fc6d26" fill-opacity="0.8"/><rect x="614" y="28" width="10" height="10" rx="2" fill="#fc6d26" fill-opacity="0.4"/><rect x="614" y="41" width="10" height="10" rx="2" fill="#fc6d26" fill-opacity="0.6"/><rect x="614" y="54" width="10" height="10" rx="2" fill="#fc6d26" fill-opacity="0.8"/><rect x="614" y="67" width="10" height="10" rx="2" fill="#fc6d26" fill-opacity="0.8"/><rect x="614" y="93" width="10" height="10" rx="2" fill="#fc6d26" fill-opacity="0.4"/><g fill-opacity="0.4"><rect x="627" y="15.0" width="10" height="5.0" fill="#40c463"/><rect x="627" y="20.0" width="10" height="5.0" fill="#fc6d26"/></g><rect x="627" y="28" width="10" height="10" rx="2" fill="#40c463" fill-opacity="0.4"/><rect x="627" y="41" width="10" height="10" rx="2" fill="#fc6d26" fill-opacity="0.4"/><g fill-opacity="0.6"><rect x="627" y="67.0" width="10" height="5.0" fill="#40c463"/><rect x="627" y="72.0" width="10" height="5.0" fill="#fc6d26"/></g><rect x="640" y="28" width="10" height="10" rx="2" fill="#40c463" fill-opacity="0.4"/><g fill-opacity="1"><rect x="640" y="41.0" width="10" height="1.8" fill="#40c463"/><rect x="640" y="42.8" width="10" height="8.2" fill="#fc6d26"/></g><g fill-opacity="0.8"><rect x="640" y="54.0" width="10" height="3.3" fill="#40c463"/><rect x="640" y="57.3" width="10" height="6.7" fill="#fc6d26"/></g><rect x="640" y="80" width="10" height="10" rx="2" fill="#fc6d26" fill-opacity="0.8"/><rect x="653" y="41" width="10" height="10" rx="2" fill="#fc6d26" fill-opacity="0.8"/><rect x="653" y="54" width="10" height="10" rx="2" fill="#fc6d26" fill-opacity="0.4"/><rect x="653" y="67" width="10" height="10" rx="2" fill="#fc6d26" fill-opacity="0.4"/><g fill-opacity="0.8"><rect x="653" y="93.0" width="10" height="8.6" fill="#40c463"/><rect x="653" y="101.6" width="10" height="1.4" fill="#fc6d26"/></g><rect x="666" y="41" width="10" height="10" rx="2" fill="#fc6d26" fill-opacity="0.8"/><rect x="666" y="54" width="10" height="10" rx="2" fill="#fc6d26" fill-opacity="0.6"/><rect x="666" y="67" width="10" height="10" rx="2" fill="#fc6d26" fill-opacity="0.8"/><rect x="666" y="80" width="10" height="10" rx="2" fill="#fc6d26" fill-opacity="0.4"/><rect x="666" y="93" width="10" height="10" rx="2" fill="#40c463" fill-opacity="1"/><rect x="679" y="15" width="10" height="10" rx="2" fill="#40c463" fill-opacity="0.6"/><rect x="679" y="28" width="10" height="10" rx="2" fill="#fc6d26" fill-opacity="0.4"/><g fill-opacity="0.6"><rect x="679" y="41.0" width="10" height="5.0" fill="#40c463"/><rect x="679" y="46.0" width="10" height="5.0" fill="#fc6d26"/></g><rect x="679" y="54" width="10" height="10" rx="2" fill="#40c463" fill-opacity="1"/><rect x="679" y="67" width="10" height="10" rx="2" fill="#40c463" fill-opacity="1"/><g fill-opacity="1"><rect x="679" y="80.0" width="10" height="5.0" fill="#40c463"/><rect x="679" y="85.0" width="10" height="5.0" fill="#fc6d26"/></g><g fill-opacity="1"><rect x="679" y="93.0" width="10" height="1.8" fill="#40c463"/><rect x="679" y="94.8" width="10" height="8.2" fill="#fc6d26"/></g><g fill-opacity="1"><rect x="692" y="15.0" width="10" height="8.5" fill="#40c463"/><rect x="692" y="23.5" width="10" height="1.5" fill="#fc6d26"/></g><rect x="692" y="28" width="10" height="10" rx="2" fill="#40c463" fill-opacity="1"/><rect x="692" y="41" width="10" height="10" rx="2" fill="#40c463" fill-opacity="0.4"/><rect x="692" y="93" width="10" height="10" rx="2" fill="#40c463" fill-opacity="0.8"/><rect x="705" y="15" width="10" height="10" rx="2" fill="#40c463" fill-opacity="0.8"/><rect x="705" y="28" width="10" height="10" rx="2" fill="#40c463" fill-opacity="0.8"/><rect x="705" y="41" width="10" height="10" rx="2" fill="#40c463" fill-opacity="0.6"/><rect x="705" y="54" width="10" height="10" rx="2" fill="#40c463" fill-opacity="1"/><g fill-opacity="0.8"><rect x="705" y="67.0" width="10" height="8.6" fill="#40c463"/><rect x="705" y="75.6" width="10" height="1.4" fill="#fc6d26"/></g><rect x="718" y="15" width="10" height="10" rx="2" fill="#40c463" fill-opacity="0.4"/><rect x="718" y="28" width="10" height="10" rx="2" fill="#40c463" fill-opacity="1"/><rect x="718" y="41" width="10" height="10" rx="2" fill="#40c463" fill-opacity="1"/><rect x="718" y="54" width="10" height="10" rx="2" fill="#40c463" fill-opacity="1"/><g fill-opacity="1"><rect x="718" y="67.0" width="10" height="9.8" fill="#40c463"/><rect x="718" y="76.8" width="10" height="0.2" fill="#fc6d26"/></g><rect x="718" y="80" width="10" height="10" rx="2" fill="#40c463" fill-opacity="0.4"/><rect x="718" y="93" width="10" height="10" rx="2" fill="#40c463" fill-opacity="1"/><rect x="731" y="15" width="10" height="10" rx="2" fill="#40c463" fill-opacity="1"/><rect x="731" y="28" width="10" height="10" rx="2" fill="#40c463" fill-opacity="1"/><rect x="731" y="41" width="10" height="10" rx="2" fill="#40c463" fill-opacity="1"/><rect x="731" y="54" width="10" height="10" rx="2" fill="#40c463" fill-opacity="1"/><rect x="731" y="67" width="10" height="10" rx="2" fill="#40c463" fill-opacity="0.6"/><rect x="731" y="80" width="10" height="10" rx="2" fill="#40c463" fill-opacity="0.8"/><rect x="731" y="93" width="10" height="10" rx="2" fill="#40c463" fill-opacity="0.8"/><circle cx="30" cy="122" r="5" fill="#40c463"/><text class="small" x="40" y="126">GitHub</text><circle cx="101" cy="122" r="5" fill="#fc6d26"/><text class="small" x="111" y="126">GitLab</text><text class="small" x="609" y="126">Less</text><rect x="641" y="117" width="10" height="10" rx="2" fill="var(--text)" fill-opacity="0.12"/><rect x="654" y="117" width="10" height="10" rx="2" fill="var(--text)" fill-opacity="0.4"/><rect x="667" y="117" width="10" height="10" rx="2" fill="var(--text)" fill-opacity="0.6"/><rect x="680" y="117" width="10" height="10" rx="2" fill="var(--text)" fill-opacity="0.8"/><rect x="693" y="117" width="10" height="10" rx="2" fill="var(--text)" fill-opacity="1"/><text class="small" x="709" y="126">More</text></g></svg>